<svg width="64.3" height="54.6" viewBox="0 0 64.3 54.6" xmlns="http://www.w3.org/2000/svg"><g id="svgGroup" stroke-linecap="round" fill-rule="evenodd" font-size="9pt" stroke="#000000" stroke-width="0.25mm" fill="none" style="stroke:#000000;stroke-width:0.25mm;fill:none"><path d="M 30.6 54.6 L 0 54.6 L 0 53.6 L 0.1 53.6 Q 3.7 53.6 5.9 51.4 Q 8.1 49.2 8.1 45.6 L 8.1 12.8 Q 8.1 9 6.55 6.9 Q 5 4.8 0 4.8 L 0 3.8 L 9.9 3.8 Q 15 3.8 17.7 2.7 Q 20.2 1.6 21.2 0 L 22.2 0 L 22.3 14 Q 24.9 8.8 30.2 5.6 Q 35.5 2.4 41.4 2.4 Q 48.1 2.4 52.15 6.8 Q 56.2 11.2 56.2 18.4 L 56.2 45.6 Q 56.2 49.2 58.4 51.4 Q 60.6 53.6 64.2 53.6 L 64.3 53.6 L 64.3 54.6 L 33.8 54.6 L 33.8 53.6 L 33.9 53.6 Q 37.5 53.6 39.7 51.4 Q 41.9 49.2 41.9 45.6 L 41.9 17.4 Q 41.9 12.4 39.95 9.4 Q 38 6.4 34.8 6.4 Q 31.7 6.4 28.35 9.05 Q 25 11.7 22.5 16.2 L 22.5 45.6 Q 22.5 49.2 24.7 51.4 Q 26.9 53.6 30.5 53.6 L 30.6 53.6 L 30.6 54.6 Z"/></g></svg>