<svg width="54.501" height="53.601" viewBox="0 0 54.501 53.601" xmlns="http://www.w3.org/2000/svg"><g id="svgGroup" stroke-linecap="round" fill-rule="evenodd" font-size="9pt" stroke="#000000" stroke-width="0.25mm" fill="none" style="stroke:#000000;stroke-width:0.25mm;fill:none"><path d="M 27.301 53.601 Q 19.101 53.601 12.951 50.301 Q 6.801 47.001 3.401 41.001 Q 0.001 35.001 0.001 26.801 Q 0.001 18.601 3.401 12.601 Q 6.801 6.601 12.951 3.301 Q 19.101 0.001 27.301 0.001 Q 35.501 0.001 41.601 3.301 Q 47.701 6.601 51.101 12.601 Q 54.501 18.601 54.501 26.801 Q 54.501 35.001 51.101 41.001 Q 47.701 47.001 41.601 50.301 Q 35.501 53.601 27.301 53.601 Z M 27.201 52.301 Q 24.101 52.301 21.551 49.101 Q 19.001 45.901 17.501 40.101 Q 16.001 34.301 16.001 26.701 Q 16.001 19.801 17.401 14.001 Q 18.801 8.201 21.351 4.701 Q 23.901 1.201 27.301 1.201 Q 30.501 1.201 33.051 4.451 Q 35.601 7.701 37.051 13.451 Q 38.501 19.201 38.501 26.701 Q 38.501 33.601 37.101 39.451 Q 35.701 45.301 33.201 48.801 Q 30.701 52.301 27.201 52.301 Z"/></g></svg>