<svg width="58.701" height="82.6" viewBox="0 0 58.701 82.6" xmlns="http://www.w3.org/2000/svg"><g id="svgGroup" stroke-linecap="round" fill-rule="nonzero" font-size="9pt" stroke="#000000" stroke-width="0" fill="#000000" style="stroke:#000000;stroke-width:0;fill:#000000"><path d="M 37.601 82.6 L 36.601 82.6 L 36.501 68.4 Q 34.101 73.6 29.301 76.95 Q 24.501 80.3 19.001 80.3 Q 13.601 80.3 9.301 76.9 Q 5.001 73.5 2.501 67.55 Q 0.001 61.6 0.001 54.1 Q 0.001 45.7 3.151 39.5 Q 6.301 33.3 11.901 29.95 Q 17.501 26.6 24.801 26.6 Q 28.901 26.6 31.501 27.85 Q 34.101 29.1 36.201 32.1 L 36.201 12.8 Q 36.201 9.2 33.951 7 Q 31.701 4.8 28.101 4.8 L 28.101 3.8 L 38.301 3.8 Q 43.301 3.8 45.901 2.8 Q 48.501 1.8 49.601 0 L 50.601 0 L 50.601 69.8 Q 50.601 73.4 52.801 75.6 Q 55.001 77.8 58.701 77.8 L 58.701 78.8 L 48.501 78.8 Q 44.101 78.8 41.551 79.7 Q 39.001 80.6 37.601 82.6 Z M 36.201 65.9 L 36.201 41.5 Q 35.701 35.5 33.251 31.9 Q 30.801 28.3 26.901 28.3 Q 21.701 28.3 18.801 34.9 Q 16.001 41.5 16.001 54.4 Q 16.001 76.3 24.501 76.3 Q 26.801 76.3 29.151 74.85 Q 31.501 73.4 33.401 71 Q 35.301 68.6 36.201 65.9 Z" vector-effect="non-scaling-stroke"/></g></svg>