<svg width="30.6" height="77.501" viewBox="0 0 30.6 77.501" xmlns="http://www.w3.org/2000/svg"><g id="svgGroup" stroke-linecap="round" fill-rule="nonzero" font-size="9pt" stroke="#000000" stroke-width="0" fill="#000000" style="stroke:#000000;stroke-width:0;fill:#000000"><path d="M 30.6 77.501 L 0 77.501 L 0 76.501 L 0.1 76.501 Q 3.7 76.501 5.9 74.301 Q 8.1 72.101 8.1 68.501 L 8.1 35.701 Q 8.1 31.901 6.55 29.801 Q 5 27.701 0 27.701 L 0 26.701 L 10.2 26.701 Q 15.3 26.701 18 25.601 Q 20.5 24.501 21.5 22.901 L 22.5 22.901 L 22.5 68.501 Q 22.5 72.101 24.7 74.301 Q 26.9 76.501 30.5 76.501 L 30.6 76.501 L 30.6 77.501 Z M 15.2 16.601 Q 11.6 16.601 9.25 14.251 Q 6.9 11.901 6.9 8.301 Q 6.9 4.701 9.25 2.351 Q 11.6 0.001 15.2 0.001 Q 18.7 0.001 21.05 2.401 Q 23.4 4.801 23.4 8.301 Q 23.4 11.801 21.05 14.201 Q 18.7 16.601 15.2 16.601 Z" vector-effect="non-scaling-stroke"/></g></svg>